<mxfile host="65bd71144e">
    <diagram id="ABNCZyfbNFh-MfdMv4a-" name="Page-1">
        <mxGraphModel dx="734" dy="566" grid="1" gridSize="10" guides="1" tooltips="1" connect="1" arrows="1" fold="1" page="1" pageScale="1" pageWidth="827" pageHeight="1169" math="0" shadow="0">
            <root>
                <mxCell id="0"/>
                <mxCell id="1" parent="0"/>
                <mxCell id="4" value="&lt;b&gt;&lt;font style=&quot;font-size: 17px&quot;&gt;Classification&lt;/font&gt;&lt;/b&gt;" style="rounded=1;whiteSpace=wrap;html=1;fillColor=#bac8d3;strokeColor=none;" parent="1" vertex="1">
                    <mxGeometry x="234" y="200" width="180" height="67.5" as="geometry"/>
                </mxCell>
                <mxCell id="5" value="&lt;b&gt;&lt;font style=&quot;font-size: 16px&quot;&gt;Task&lt;/font&gt;&lt;/b&gt;" style="rounded=1;whiteSpace=wrap;html=1;fillColor=#bac8d3;strokeColor=none;" parent="1" vertex="1">
                    <mxGeometry x="20" y="162.5" width="180" height="67.5" as="geometry"/>
                </mxCell>
                <mxCell id="10" value="&lt;b&gt;&lt;font style=&quot;font-size: 16px&quot;&gt;Workbasket&lt;/font&gt;&lt;/b&gt;" style="rounded=1;whiteSpace=wrap;html=1;fillColor=#bac8d3;strokeColor=none;" parent="1" vertex="1">
                    <mxGeometry x="440" y="162.5" width="180" height="67.5" as="geometry"/>
                </mxCell>
                <mxCell id="27" value="&lt;b&gt;&lt;font style=&quot;font-size: 14px&quot;&gt;Attachment&lt;/font&gt;&lt;/b&gt;" style="rounded=1;whiteSpace=wrap;html=1;fillColor=#bac8d3;strokeColor=none;" parent="1" vertex="1">
                    <mxGeometry x="20" y="240" width="90" height="47.5" as="geometry"/>
                </mxCell>
                <mxCell id="28" value="&lt;b&gt;&lt;font style=&quot;font-size: 14px&quot;&gt;Object Reference&lt;/font&gt;&lt;/b&gt;" style="rounded=1;whiteSpace=wrap;html=1;fillColor=#bac8d3;strokeColor=none;" parent="1" vertex="1">
                    <mxGeometry x="120" y="240" width="90" height="47.5" as="geometry"/>
                </mxCell>
                <mxCell id="30" value="&lt;b&gt;&lt;font style=&quot;font-size: 14px&quot;&gt;WorkbasketAccessItem&lt;/font&gt;&lt;/b&gt;" style="rounded=1;whiteSpace=wrap;html=1;fillColor=#bac8d3;strokeColor=none;" parent="1" vertex="1">
                    <mxGeometry x="445" y="250" width="170" height="37.5" as="geometry"/>
                </mxCell>
            </root>
        </mxGraphModel>
    </diagram>
</mxfile>